<svg width="180" height="180" viewBox="0 0 180 180" fill="none" xmlns="http://www.w3.org/2000/svg">
<circle cx="90" cy="90" r="90" fill="white"/>
<path d="M78.0481 33.012C78.6747 32.0722 81.1807 29.3735 84.2891 26.3132L89.518 21.1566L97.2289 28.8674L94.2409 31.7349C92.6024 33.3012 90.6987 35.3494 89.9759 36.265C89.2771 37.1807 88.4337 38.5542 88.0963 39.2771C87.759 40 87.3012 41.4216 87.0843 42.4096C86.8433 43.5421 86.7469 44.7951 86.8192 45.7831C86.8915 46.6506 87.1807 47.9518 87.4457 48.6747C87.7108 49.3975 88.2891 50.5301 88.7228 51.2048C89.1566 51.8554 90.771 53.7108 92.2891 55.3012C93.8313 56.8915 95.5662 58.8433 96.1445 59.6385C96.7228 60.4337 97.6144 61.8313 98.1204 62.771C98.6024 63.7108 99.253 65.1084 99.518 65.9036C99.8072 66.6988 100.193 68.0963 100.385 69.0361C100.602 70.0241 100.771 71.9277 100.771 73.6144C100.771 75.7831 100.626 76.9879 100.265 78.4337C99.9759 79.4939 99.4457 81.012 99.0843 81.8072C98.6987 82.6024 98.0481 83.7831 97.5903 84.4578C97.1325 85.1084 96.265 86.1927 94.5783 87.9759H80.3614L83.012 85.253C84.4819 83.759 86.0963 81.8795 86.6265 81.0843C87.1325 80.2891 87.7831 79.1566 88.024 78.5542C88.2891 77.9518 88.6506 76.7229 88.8433 75.7831C89.0843 74.6747 89.1325 73.5662 89.0361 72.5301C88.9397 71.6626 88.6746 70.4096 88.4096 69.759C88.1686 69.0843 87.6385 68.0723 87.253 67.4698C86.8674 66.8674 85.4216 65.2048 84.0481 63.7349C82.6746 62.265 81.012 60.4337 80.3614 59.6385C79.6867 58.8433 78.6506 57.3735 78.024 56.3855C77.3975 55.3975 76.5783 53.759 76.1686 52.771C75.7831 51.7831 75.253 50.1927 75.0361 49.2771C74.7469 48.1686 74.6024 46.5783 74.6024 44.6988C74.5783 42.6024 74.6987 41.3012 75.0361 40C75.3012 39.012 75.8313 37.3735 76.265 36.3855C76.6746 35.3975 77.4698 33.8795 78.0481 33.012Z" fill="#121212"/>
<path d="M27.0843 104.771C26.8915 103.205 26.6506 100.699 26.5783 99.1807L26.4096 96.4096H152.385L152.337 97.5421C152.313 98.1686 152.169 100.145 152.024 101.952C151.879 103.735 151.542 106.385 151.277 107.855C151.012 109.301 150.554 111.518 150.217 112.795C149.904 114.048 149.301 116.048 148.892 117.253C148.482 118.434 147.47 120.819 146.626 122.554C145.807 124.265 144.385 126.867 143.494 128.337C142.602 129.783 140.916 132.217 139.783 133.759C138.602 135.349 136.241 138 134.217 140.024C132.289 141.952 129.566 144.385 128.145 145.446C126.747 146.506 124.145 148.217 122.361 149.277C120.602 150.337 117.904 151.759 116.361 152.458C114.843 153.132 112.458 154.096 111.06 154.578C109.687 155.06 107.012 155.831 105.157 156.265C103.301 156.723 100.602 157.277 99.1325 157.518C97.0361 157.879 95.0843 157.952 89.6144 157.952C84.1686 157.976 82.1927 157.879 79.9759 157.518C78.4578 157.301 75.9036 156.771 74.3132 156.41C72.7228 156.024 69.9759 155.205 68.1686 154.602C66.3855 153.976 63.1807 152.626 61.0602 151.59C58.9397 150.554 56.0722 148.94 54.6747 148C53.3012 147.084 50.7951 145.181 49.1325 143.807C47.4939 142.41 44.8192 139.952 43.2289 138.289C41.6385 136.651 39.3975 134.072 38.265 132.554C37.1084 131.012 35.5903 128.795 34.8674 127.614C34.1445 126.41 32.9397 124.241 32.2168 122.795C31.4698 121.325 30.3855 118.675 29.7831 116.892C29.1807 115.084 28.4096 112.265 28.0722 110.626C27.7349 108.964 27.3012 106.337 27.0843 104.771Z" fill="#121212"/>
<path d="M83.9759 106.747C84.7711 106.482 86.1205 106.169 86.9879 106.072C87.8554 105.976 89.0843 105.928 89.759 105.976C90.4096 106.024 91.8313 106.313 92.8915 106.626C93.9518 106.964 95.4699 107.639 96.265 108.169C97.0602 108.675 98.2409 109.687 98.9156 110.41C99.5662 111.108 100.554 112.41 101.084 113.253C101.614 114.12 102.386 115.639 103.59 118.434L105.349 118.602C106.313 118.699 107.59 118.94 108.193 119.157C108.795 119.373 109.711 119.783 110.241 120.096C110.771 120.41 111.711 121.229 112.337 121.904C112.988 122.578 113.855 123.855 114.265 124.771C115.012 126.289 115.06 126.53 115.06 129.036C115.06 131.422 114.988 131.831 114.386 133.084C114.024 133.831 113.205 135.036 112.554 135.735C111.904 136.41 110.795 137.301 110.096 137.687C109.373 138.072 108.241 138.53 107.59 138.723C106.651 138.964 102.602 139.036 89.2289 139.036C73.4217 139.036 71.9277 139.012 70.6747 138.602C69.9036 138.361 68.747 137.831 68.0723 137.422C67.4217 137.012 66.3855 136.145 65.7831 135.494C65.2048 134.867 64.4819 133.807 64.1687 133.132C63.8795 132.482 63.494 131.229 63.3253 130.361C63.1084 129.157 63.1084 128.434 63.3253 127.229C63.4699 126.361 63.9277 125.012 64.3132 124.217C64.747 123.349 65.5662 122.265 66.3614 121.518C67.1084 120.819 68.3855 119.928 69.2048 119.518C70.1687 119.06 71.3012 118.747 73.8554 118.506L74.3855 117.012C74.6988 116.217 75.4217 114.723 76 113.735C76.5783 112.747 77.6385 111.277 78.3373 110.506C79.0602 109.711 80.2891 108.651 81.0843 108.145C81.8795 107.639 83.1807 106.988 83.9759 106.747Z" fill="#FDFDFD"/>
</svg>
